<svg width="24" height="24" viewBox="0 0 24 24" fill="none" xmlns="http://www.w3.org/2000/svg">
<path d="M8.35501 0.643626C5.46845 1.65782 2.97196 3.84225 1.56769 6.57278C1.0996 7.50897 0.709519 8.52316 0.553488 9.61538C0.00738171 12.1899 0.397458 14.9984 1.56769 17.3389C2.34784 18.8992 3.44005 20.2254 4.84433 21.3177C6.09257 22.3319 7.57486 23.112 9.21318 23.5021C11.2416 24.0482 13.348 24.0482 15.2984 23.5801C17.0927 23.19 18.8091 22.3319 20.2133 21.0056C21.6956 19.6793 22.7098 17.963 23.2559 16.0126C23.88 13.9842 23.9581 11.7998 23.568 9.69339C19.8232 9.69339 16.0785 9.69339 12.3338 9.69339C12.3338 11.2537 12.3338 12.814 12.3338 14.3743C14.5182 14.3743 16.7026 14.3743 18.8091 14.3743C18.575 15.8566 17.6388 17.2609 16.3906 18.041C15.6104 18.5871 14.6742 18.8992 13.7381 19.0552C12.8019 19.2113 11.7877 19.2113 10.8515 19.0552C9.91532 18.8992 8.97913 18.4311 8.19898 17.885C6.95074 17.0268 5.93654 15.7006 5.46845 14.2183C4.92234 12.736 4.92234 11.0977 5.46845 9.53736C5.85852 8.52316 6.40463 7.50897 7.18478 6.72881C8.12096 5.71462 9.36921 5.01248 10.7735 4.77843C11.9437 4.54439 13.1139 4.54439 14.2842 4.93446C15.2204 5.24652 16.1565 5.79263 16.8587 6.41675C17.5608 5.71462 18.341 4.93446 19.0431 4.23233C19.4332 3.84225 19.8233 3.45217 20.2133 3.0621C19.1211 2.0479 17.7949 1.18973 16.3906 0.643626C13.8161 -0.214542 10.9295 -0.214542 8.35501 0.643626Z" fill="white"/>
</svg>
